<mxfile host="app.diagrams.net" agent="Mozilla/5.0 (Macintosh; Intel Mac OS X 10_15_7) AppleWebKit/537.36 (KHTML, like Gecko) Chrome/134.0.0.0 Safari/537.36" version="26.1.1">
  <diagram name="Sweet Creations Login" id="B4Hwr_aoEQiL5hWnRPIQ">
    <mxGraphModel dx="1242" dy="722" grid="1" gridSize="10" guides="1" tooltips="1" connect="1" arrows="1" fold="1" page="1" pageScale="1" pageWidth="827" pageHeight="1169" math="0" shadow="0">
      <root>
        <mxCell id="0" />
        <mxCell id="1" parent="0" />
        <mxCell id="rcM42JzT2rmKalIq9QSW-1" value="" style="rounded=0;whiteSpace=wrap;html=1;fillColor=#f8f8f8;strokeColor=none;" vertex="1" parent="1">
          <mxGeometry x="50" y="50" width="800" height="500" as="geometry" />
        </mxCell>
        <mxCell id="rcM42JzT2rmKalIq9QSW-2" value="" style="rounded=1;whiteSpace=wrap;html=1;fillColor=#ffffff;strokeColor=#e0e0e0;arcSize=5;" vertex="1" parent="1">
          <mxGeometry x="300" y="150" width="300" height="300" as="geometry" />
        </mxCell>
        <mxCell id="rcM42JzT2rmKalIq9QSW-3" value="" style="rounded=1;whiteSpace=wrap;html=1;fillColor=#FF85A2;strokeColor=#FF85A2;arcSize=10;" vertex="1" parent="1">
          <mxGeometry x="300" y="150" width="300" height="60" as="geometry" />
        </mxCell>
        <mxCell id="rcM42JzT2rmKalIq9QSW-4" value="Sweet Creations" style="text;html=1;strokeColor=none;fillColor=none;align=center;verticalAlign=middle;whiteSpace=wrap;rounded=0;fontColor=#FFFFFF;fontSize=22;fontStyle=1" vertex="1" parent="1">
          <mxGeometry x="300" y="165" width="300" height="30" as="geometry" />
        </mxCell>
        <mxCell id="rcM42JzT2rmKalIq9QSW-5" value="Username:" style="text;html=1;strokeColor=none;fillColor=none;align=left;verticalAlign=middle;whiteSpace=wrap;rounded=0;fontColor=#666666;fontSize=14;" vertex="1" parent="1">
          <mxGeometry x="320" y="230" width="100" height="20" as="geometry" />
        </mxCell>
        <mxCell id="rcM42JzT2rmKalIq9QSW-6" value="" style="rounded=1;whiteSpace=wrap;html=1;fillColor=#FFFFFF;strokeColor=#CCCCCC;arcSize=10;" vertex="1" parent="1">
          <mxGeometry x="320" y="250" width="260" height="35" as="geometry" />
        </mxCell>
        <mxCell id="rcM42JzT2rmKalIq9QSW-7" value="Password:" style="text;html=1;strokeColor=none;fillColor=none;align=left;verticalAlign=middle;whiteSpace=wrap;rounded=0;fontColor=#666666;fontSize=14;" vertex="1" parent="1">
          <mxGeometry x="320" y="300" width="100" height="20" as="geometry" />
        </mxCell>
        <mxCell id="rcM42JzT2rmKalIq9QSW-8" value="" style="rounded=1;whiteSpace=wrap;html=1;fillColor=#FFFFFF;strokeColor=#CCCCCC;arcSize=10;" vertex="1" parent="1">
          <mxGeometry x="320" y="320" width="260" height="35" as="geometry" />
        </mxCell>
        <mxCell id="rcM42JzT2rmKalIq9QSW-9" value="Login" style="rounded=1;whiteSpace=wrap;html=1;fillColor=#FF85A2;strokeColor=#FF85A2;fontColor=#FFFFFF;fontSize=16;fontStyle=1" vertex="1" parent="1">
          <mxGeometry x="380" y="380" width="140" height="40" as="geometry" />
        </mxCell>
        <mxCell id="rcM42JzT2rmKalIq9QSW-10" value="" style="ellipse;whiteSpace=wrap;html=1;aspect=fixed;fillColor=#FFB6C1;strokeColor=none;" vertex="1" parent="1">
          <mxGeometry x="435" y="100" width="30" height="30" as="geometry" />
        </mxCell>
        <mxCell id="rcM42JzT2rmKalIq9QSW-11" value="" style="rounded=1;whiteSpace=wrap;html=1;fillColor=#FF85A2;strokeColor=none;arcSize=50;" vertex="1" parent="1">
          <mxGeometry x="435" y="90" width="30" height="20" as="geometry" />
        </mxCell>
        <mxCell id="rcM42JzT2rmKalIq9QSW-12" value="" style="ellipse;whiteSpace=wrap;html=1;aspect=fixed;fillColor=#FFFFFF;strokeColor=none;" vertex="1" parent="1">
          <mxGeometry x="446" y="85" width="8" height="8" as="geometry" />
        </mxCell>
      </root>
    </mxGraphModel>
  </diagram>
</mxfile>
